<svg width="438" height="500" viewBox="0 0 438 500" fill="none" xmlns="http://www.w3.org/2000/svg">
<path d="M218.75 0L0 125V375L218.75 500L437.438 375.037L437.5 374.938V125L218.75 0ZM218.75 48.1187L374.312 137L332.237 161.05L218.75 96.2312L105.288 161.069L63.175 137L218.75 48.1187ZM311.219 197.163V278.781L239.806 238V156.375L311.219 197.163ZM197.694 156.375V237.981L126.3 278.775V197.163L197.694 156.375ZM197.694 439.856L42.0938 350.95V173.075L84.1813 197.125V326.881L197.694 391.75V439.856ZM147.319 314.856L218.731 274.05L290.163 314.856L218.75 355.65L147.319 314.856ZM395.406 350.95L239.806 439.856V391.75L353.312 326.906V197.125L395.4 173.075L395.406 350.95Z" fill="url(#paint0_linear_2_17)"/>
<defs>
<linearGradient id="paint0_linear_2_17" x1="0" y1="0" x2="437.5" y2="0" gradientUnits="userSpaceOnUse">
<stop stop-color="#8F5E25"/>
<stop offset="0.5" stop-color="#FBF4A1"/>
<stop offset="1" stop-color="#8F5E25"/>
</linearGradient>
</defs>
</svg>
